<svg width="44" height="44" viewBox="0 0 44 44" fill="none" xmlns="http://www.w3.org/2000/svg">
<g clip-path="url(#clip0_54_49)">
<path d="M5.5 36.6667H38.5V22C38.5 20.5413 37.9205 19.1424 36.8891 18.1109C35.8576 17.0795 34.4587 16.5 33 16.5H11C9.54131 16.5 8.14236 17.0795 7.11091 18.1109C6.07946 19.1424 5.5 20.5413 5.5 22V36.6667Z" stroke="#39BFC6" stroke-width="2.75" stroke-linecap="round" stroke-linejoin="round"/>
<path d="M5.5 27.1389C6.072 27.3864 6.699 27.5129 7.33333 27.5C8.04741 27.515 8.75439 27.3559 9.39322 27.0365C10.0321 26.7171 10.5835 26.2469 11 25.6667C11.4165 25.0865 11.9679 24.6163 12.6068 24.2969C13.2456 23.9775 13.9526 23.8184 14.6667 23.8334C15.3807 23.8184 16.0877 23.9775 16.7266 24.2969C17.3654 24.6163 17.9169 25.0865 18.3333 25.6667C18.7498 26.2469 19.3013 26.7171 19.9401 27.0365C20.5789 27.3559 21.2859 27.515 22 27.5C22.7141 27.515 23.4211 27.3559 24.0599 27.0365C24.6987 26.7171 25.2502 26.2469 25.6667 25.6667C26.0831 25.0865 26.6346 24.6163 27.2734 24.2969C27.9123 23.9775 28.6193 23.8184 29.3333 23.8334C30.0474 23.8184 30.7544 23.9775 31.3932 24.2969C32.0321 24.6163 32.5835 25.0865 33 25.6667C33.4165 26.2469 33.968 26.7171 34.6068 27.0365C35.2456 27.3559 35.9526 27.515 36.6667 27.5C37.3083 27.5129 37.9353 27.3864 38.5 27.1389" stroke="#39BFC6" stroke-width="2.75" stroke-linecap="round" stroke-linejoin="round"/>
<path d="M22 7.33331L24.6859 10.3363C25.1651 10.8515 25.486 11.4938 25.6102 12.1864C25.7344 12.879 25.6567 13.5928 25.3864 14.2424C25.116 14.8921 24.6644 15.4503 24.0855 15.8503C23.5066 16.2503 22.8248 16.4752 22.1215 16.4983C21.4182 16.5214 20.7231 16.3417 20.1192 15.9805C19.5153 15.6193 19.028 15.092 18.7156 14.4615C18.4032 13.831 18.2789 13.1239 18.3574 12.4246C18.4359 11.7253 18.7139 11.0634 19.1584 10.5178L22 7.33331Z" stroke="#39BFC6" stroke-width="2.75" stroke-linecap="round" stroke-linejoin="round"/>
</g>
<defs>
<clipPath id="clip0_54_49">
<rect width="44" height="44" fill="white"/>
</clipPath>
</defs>
</svg>
