<svg width="128" height="128" viewBox="0 0 128 128" fill="none" xmlns="http://www.w3.org/2000/svg">
<path d="M9 7H7V9H9V7Z" fill="#39BFC6" fill-opacity="0.24"/>
<path d="M9 23H7V25H9V23Z" fill="#39BFC6" fill-opacity="0.24"/>
<path d="M9 39H7V41H9V39Z" fill="#39BFC6" fill-opacity="0.24"/>
<path d="M9 55H7V57H9V55Z" fill="#39BFC6" fill-opacity="0.24"/>
<path d="M9 119H7V121H9V119Z" fill="#39BFC6" fill-opacity="0.24"/>
<path d="M7 103H9V105H7V103Z" fill="#39BFC6" fill-opacity="0.24"/>
<path d="M7 87H9V89H7V87Z" fill="#39BFC6" fill-opacity="0.24"/>
<path d="M7 71H9V73H7V71Z" fill="#39BFC6" fill-opacity="0.24"/>
<path d="M55 119H57V121H55V119Z" fill="#39BFC6" fill-opacity="0.24"/>
<path d="M57 55H55V57H57V55Z" fill="#39BFC6" fill-opacity="0.24"/>
<path d="M55 103H57V105H55V103Z" fill="#39BFC6" fill-opacity="0.24"/>
<path d="M57 39H55V41H57V39Z" fill="#39BFC6" fill-opacity="0.24"/>
<path d="M55 87H57V89H55V87Z" fill="#39BFC6" fill-opacity="0.24"/>
<path d="M57 23H55V25H57V23Z" fill="#39BFC6" fill-opacity="0.24"/>
<path d="M55 71H57V73H55V71Z" fill="#39BFC6" fill-opacity="0.24"/>
<path d="M57 7H55V9H57V7Z" fill="#39BFC6" fill-opacity="0.24"/>
<path d="M23 119H25V121H23V119Z" fill="#39BFC6" fill-opacity="0.24"/>
<path d="M25 55H23V57H25V55Z" fill="#39BFC6" fill-opacity="0.24"/>
<path d="M23 103H25V105H23V103Z" fill="#39BFC6" fill-opacity="0.24"/>
<path d="M25 39H23V41H25V39Z" fill="#39BFC6" fill-opacity="0.24"/>
<path d="M23 87H25V89H23V87Z" fill="#39BFC6" fill-opacity="0.24"/>
<path d="M25 23H23V25H25V23Z" fill="#39BFC6" fill-opacity="0.24"/>
<path d="M23 71H25V73H23V71Z" fill="#39BFC6" fill-opacity="0.24"/>
<path d="M25 7H23V9H25V7Z" fill="#39BFC6" fill-opacity="0.24"/>
<path d="M71 119H73V121H71V119Z" fill="#39BFC6" fill-opacity="0.24"/>
<path d="M73 55H71V57H73V55Z" fill="#39BFC6" fill-opacity="0.24"/>
<path d="M71 103H73V105H71V103Z" fill="#39BFC6" fill-opacity="0.24"/>
<path d="M73 39H71V41H73V39Z" fill="#39BFC6" fill-opacity="0.24"/>
<path d="M71 87H73V89H71V87Z" fill="#39BFC6" fill-opacity="0.24"/>
<path d="M73 23H71V25H73V23Z" fill="#39BFC6" fill-opacity="0.24"/>
<path d="M71 71H73V73H71V71Z" fill="#39BFC6" fill-opacity="0.24"/>
<path d="M73 7H71V9H73V7Z" fill="#39BFC6" fill-opacity="0.24"/>
<path d="M103 119H105V121H103V119Z" fill="#39BFC6" fill-opacity="0.24"/>
<path d="M105 55H103V57H105V55Z" fill="#39BFC6" fill-opacity="0.24"/>
<path d="M103 103H105V105H103V103Z" fill="#39BFC6" fill-opacity="0.24"/>
<path d="M105 39H103V41H105V39Z" fill="#39BFC6" fill-opacity="0.24"/>
<path d="M103 87H105V89H103V87Z" fill="#39BFC6" fill-opacity="0.24"/>
<path d="M105 23H103V25H105V23Z" fill="#39BFC6" fill-opacity="0.24"/>
<path d="M103 71H105V73H103V71Z" fill="#39BFC6" fill-opacity="0.24"/>
<path d="M105 7H103V9H105V7Z" fill="#39BFC6" fill-opacity="0.24"/>
<path d="M39 119H41V121H39V119Z" fill="#39BFC6" fill-opacity="0.24"/>
<path d="M41 55H39V57H41V55Z" fill="#39BFC6" fill-opacity="0.24"/>
<path d="M39 103H41V105H39V103Z" fill="#39BFC6" fill-opacity="0.24"/>
<path d="M41 39H39V41H41V39Z" fill="#39BFC6" fill-opacity="0.24"/>
<path d="M39 87H41V89H39V87Z" fill="#39BFC6" fill-opacity="0.24"/>
<path d="M41 23H39V25H41V23Z" fill="#39BFC6" fill-opacity="0.24"/>
<path d="M39 71H41V73H39V71Z" fill="#39BFC6" fill-opacity="0.24"/>
<path d="M41 7H39V9H41V7Z" fill="#39BFC6" fill-opacity="0.24"/>
<path d="M87 119H89V121H87V119Z" fill="#39BFC6" fill-opacity="0.24"/>
<path d="M89 55H87V57H89V55Z" fill="#39BFC6" fill-opacity="0.24"/>
<path d="M87 103H89V105H87V103Z" fill="#39BFC6" fill-opacity="0.24"/>
<path d="M89 39H87V41H89V39Z" fill="#39BFC6" fill-opacity="0.24"/>
<path d="M87 87H89V89H87V87Z" fill="#39BFC6" fill-opacity="0.24"/>
<path d="M89 23H87V25H89V23Z" fill="#39BFC6" fill-opacity="0.24"/>
<path d="M87 71H89V73H87V71Z" fill="#39BFC6" fill-opacity="0.24"/>
<path d="M89 7H87V9H89V7Z" fill="#39BFC6" fill-opacity="0.24"/>
<path d="M119 119H121V121H119V119Z" fill="#39BFC6" fill-opacity="0.24"/>
<path d="M121 55H119V57H121V55Z" fill="#39BFC6" fill-opacity="0.24"/>
<path d="M119 103H121V105H119V103Z" fill="#39BFC6" fill-opacity="0.24"/>
<path d="M121 39H119V41H121V39Z" fill="#39BFC6" fill-opacity="0.24"/>
<path d="M119 87H121V89H119V87Z" fill="#39BFC6" fill-opacity="0.24"/>
<path d="M121 23H119V25H121V23Z" fill="#39BFC6" fill-opacity="0.24"/>
<path d="M119 71H121V73H119V71Z" fill="#39BFC6" fill-opacity="0.24"/>
<path d="M121 7H119V9H121V7Z" fill="#39BFC6" fill-opacity="0.24"/>
</svg>
