<svg width="25" height="25" viewBox="0 0 25 25" fill="none" xmlns="http://www.w3.org/2000/svg">
<mask id="mask0_263_242" style="mask-type:alpha" maskUnits="userSpaceOnUse" x="0" y="0" width="25" height="25">
<rect x="0.829346" y="0.325195" width="24" height="24" fill="#D9D9D9"/>
</mask>
<g mask="url(#mask0_263_242)">
<path d="M12.8293 15.9022L9.29085 12.3637L9.9986 11.6444L12.3293 13.9752V5.3252H13.3293V13.9752L15.6601 11.6444L16.3678 12.3637L12.8293 15.9022ZM7.44485 19.3252C6.98451 19.3252 6.60018 19.171 6.29185 18.8627C5.98351 18.5544 5.82935 18.17 5.82935 17.7097V15.2867H6.82935V17.7097C6.82935 17.8637 6.89343 18.0048 7.0216 18.1329C7.14976 18.2611 7.29085 18.3252 7.44485 18.3252H18.2138C18.3678 18.3252 18.5089 18.2611 18.6371 18.1329C18.7653 18.0048 18.8293 17.8637 18.8293 17.7097V15.2867H19.8293V17.7097C19.8293 18.17 19.6752 18.5544 19.3668 18.8627C19.0585 19.171 18.6742 19.3252 18.2138 19.3252H7.44485Z" fill="white"/>
</g>
</svg>
