<svg width="44" height="44" viewBox="0 0 44 44" fill="none" xmlns="http://www.w3.org/2000/svg">
<path d="M5.5 12.8333C5.5 11.8609 5.88631 10.9282 6.57394 10.2406C7.26158 9.55297 8.19421 9.16666 9.16667 9.16666H34.8333C35.8058 9.16666 36.7384 9.55297 37.4261 10.2406C38.1137 10.9282 38.5 11.8609 38.5 12.8333V31.1667C38.5 32.1391 38.1137 33.0718 37.4261 33.7594C36.7384 34.447 35.8058 34.8333 34.8333 34.8333H9.16667C8.19421 34.8333 7.26158 34.447 6.57394 33.7594C5.88631 33.0718 5.5 32.1391 5.5 31.1667V12.8333Z" stroke="#F2F2F2" stroke-width="2.75" stroke-linecap="round" stroke-linejoin="round"/>
<path d="M5.5 12.8333L22 23.8333L38.5 12.8333" stroke="#F2F2F2" stroke-width="2.75" stroke-linecap="round" stroke-linejoin="round"/>
</svg>
