<svg width="1570" height="710" viewBox="0 0 1570 710" fill="none" xmlns="http://www.w3.org/2000/svg">
<path d="M22.7418 9.55575H18.8527M22.7418 17.3339H18.8527M22.7418 25.1121H18.8527M22.7418 32.8903H18.8527M292.745 38.0757L291.449 36.7794C290.761 36.0917 290.375 35.1591 290.375 34.1866C290.375 33.2142 290.761 32.2815 291.449 31.5939L296.634 26.4085C297.322 25.7208 298.255 25.3345 299.227 25.3345C300.2 25.3345 301.132 25.7208 301.82 26.4085L303.116 27.7048M290.153 12.1485L292.745 9.55575C293.433 8.86812 294.366 8.48181 295.338 8.48181C296.311 8.48181 297.243 8.86812 297.931 9.55575L299.227 10.8521M275.893 34.1866L274.596 32.8903C273.909 32.2026 273.522 31.27 273.522 30.2976C273.522 29.3251 273.909 28.3925 274.596 27.7048L277.189 25.1121M543.304 12.1485H553.674M793.862 27.7048L817.196 4.3703M804.233 38.0757L827.567 14.7412M793.862 14.7412L817.196 38.0757M804.233 4.3703L827.567 27.7048M1061.27 32.8903L1062.57 31.5939M1061.27 9.55575L1062.57 10.8521M1083.31 10.8521L1084.61 9.55575M1056.35 21.223H1058.16M1072.94 4.62958V6.44448M1076.44 30.6865L1082.4 24.7232M1323.5 22.5194V32.8903H1333.87M1336.46 9.55575H1346.83V19.9267M1327.39 8.25939L1342.94 34.1866M146.075 126.485L148.667 129.078M155.149 143.337L166.816 155.005M162.927 135.559L174.595 147.227M155.149 153.708L157.742 145.93M165.52 138.152L173.298 135.559M162.927 151.116L170.705 143.337M151.26 136.856L151.273 136.869M156.445 131.67L156.458 131.683M424.504 147.875L423.208 141.393M423.208 141.393L429.69 142.689M423.208 141.393L420.615 138.8M420.615 138.8L423.208 133.615M420.615 138.8L415.43 141.393M675.711 139.448L675.724 139.435M683.489 131.67L683.502 131.657M945.714 139.448L949.604 135.559C951.666 133.496 952.825 130.699 952.825 127.781C952.825 124.864 951.666 122.066 949.604 120.003L948.307 118.707L944.418 122.596C942.355 124.659 941.196 127.456 941.196 130.374C941.196 133.291 942.355 136.089 944.418 138.152L940.529 142.041C938.466 144.104 935.668 145.263 932.751 145.263C929.833 145.263 927.036 144.104 924.973 142.041L922.38 139.448L926.269 135.559C928.332 133.496 931.13 132.337 934.047 132.337C936.965 132.337 939.762 133.496 941.825 135.559L949.604 143.337M1213.13 157.597L1210.53 149.819M1220.9 149.819L1215.72 144.634H1207.94M1207.94 144.634L1201.46 135.559M1207.94 144.634L1203.99 145.423C1203.25 145.572 1202.48 145.487 1201.79 145.181C1201.1 144.875 1200.52 144.362 1200.13 143.713L1199.04 141.902C1198.62 141.202 1198.45 140.38 1198.55 139.569C1198.65 138.758 1199.01 138.003 1199.59 137.425L1201.46 135.559M1201.46 135.559L1210.53 136.856L1217.01 135.559M1201.46 135.559L1207.94 131.67L1209.24 125.188M1214.42 132.967L1226.09 144.634M1223.5 144.634L1226.09 142.041M20.6676 264.156C18.4932 259.343 17.6586 254.032 18.2518 248.784C18.8451 243.536 20.8442 238.545 24.0382 234.339C27.2321 238.545 29.2312 243.536 29.8245 248.784C30.4177 254.032 29.5831 259.343 27.4087 264.156M18.3342 255.6C22.0159 254.243 26.0604 254.243 29.7422 255.6M284.967 258.97L275.244 249.247C274.729 248.732 274.029 248.442 273.3 248.442C272.571 248.442 271.871 248.732 271.355 249.247C270.84 249.763 270.55 250.463 270.55 251.192C270.55 251.921 270.84 252.621 271.355 253.137L282.374 264.156H278.563C277.8 264.156 277.059 264.411 276.458 264.881C275.857 265.351 275.43 266.008 275.244 266.748C275.071 267.443 275.175 268.178 275.534 268.798C275.894 269.417 276.481 269.871 277.171 270.064C283.937 271.958 287.831 273.014 288.856 273.23L289.499 273.365C291.284 273.732 293.131 273.651 294.876 273.128C296.621 272.604 298.209 271.656 299.497 270.368L299.227 270.637L301.82 268.045C303.883 265.982 305.042 263.184 305.042 260.267C305.042 257.349 303.883 254.551 301.82 252.488L295.986 246.655C295.471 246.139 294.771 245.849 294.042 245.849C293.312 245.849 292.613 246.139 292.097 246.655C291.581 247.17 291.292 247.87 291.292 248.599C291.292 249.329 291.581 250.028 292.097 250.544M284.319 258.322L281.726 255.729C281.211 255.214 280.921 254.514 280.921 253.785C280.921 253.055 281.211 252.356 281.726 251.84C282.242 251.324 282.941 251.035 283.671 251.035C284.4 251.035 285.1 251.324 285.615 251.84L288.856 255.081M286.912 253.137C286.396 252.621 286.106 251.921 286.106 251.192C286.106 250.463 286.396 249.763 286.912 249.247C287.427 248.732 288.127 248.442 288.856 248.442C289.586 248.442 290.285 248.732 290.801 249.247L292.745 251.192M265.522 255.081H262.929M269.411 261.563L268.115 262.859M277.189 243.414V240.821M282.374 246.007L283.671 244.71M536.822 248.599L539.414 246.007M554.971 264.156L554.984 264.169M813.307 278.416L824.974 266.748M819.789 271.934L800.343 270.637L804.233 252.488M804.642 252.271H801.645C800.673 252.271 799.74 251.885 799.052 251.197C798.364 250.51 797.978 249.577 797.978 248.604C797.977 247.632 798.364 246.699 799.051 246.011C799.739 245.324 800.671 244.937 801.644 244.937H804.61M815.252 253.137L815.876 253.222C817.097 253.216 818.266 252.728 819.129 251.865C819.993 251.002 820.48 249.833 820.486 248.612C820.494 246.185 818.62 244.205 816.237 244.046L815.284 244.043M1076.83 277.119L1074.24 274.527C1072.86 273.151 1072.09 271.286 1072.09 269.341C1072.09 267.396 1072.86 265.531 1074.24 264.156L1079.42 258.97C1079.77 258.624 1080.14 258.318 1080.53 258.056M1087.2 253.785L1088.5 260.267L1093.68 255.081L1094.98 261.563M1339.05 274.527L1352.02 261.563M1336.46 266.748L1341.65 271.934M1344.24 258.97L1349.43 264.156M172.001 388.862C171.546 389.317 170.981 389.645 170.361 389.814L156.09 393.693C154.829 394.037 153.487 393.683 152.568 392.764L142.174 382.369C141.256 381.451 140.901 380.108 141.243 378.846L145.122 364.575C145.291 363.955 145.619 363.39 146.074 362.935C146.529 362.48 147.094 362.152 147.714 361.983L161.985 358.104C162.602 357.935 163.252 357.932 163.871 358.095C164.489 358.258 165.054 358.582 165.507 359.034L175.901 369.428C176.819 370.346 177.174 371.689 176.832 372.951L172.953 387.222C172.784 387.842 172.456 388.407 172.001 388.862ZM172.001 388.862L159.038 375.899M159.038 375.899L163.822 358.048M159.038 375.899L141.187 380.683M689.323 372.658C688.119 373.862 687.443 375.494 687.443 377.196C687.443 378.897 688.119 380.529 689.323 381.733M689.323 381.733L690.619 383.029M689.323 381.733C688.119 380.529 686.487 379.853 684.785 379.853C683.084 379.853 681.451 380.529 680.248 381.733M689.323 381.733L676.359 368.769M690.619 383.029C691.822 384.233 693.454 384.909 695.156 384.909C696.858 384.909 698.49 384.233 699.693 383.029C700.897 381.826 701.573 380.194 701.573 378.492C701.573 376.79 700.897 375.158 699.693 373.955L697.36 371.621M690.619 383.029C691.822 384.233 692.498 385.865 692.498 387.566C692.498 389.268 691.822 390.9 690.619 392.104C689.416 393.307 687.783 393.983 686.082 393.983C684.38 393.983 682.748 393.307 681.544 392.104L679.211 389.77M695.804 373.955C697.008 372.751 697.684 371.119 697.684 369.417C697.684 367.716 697.008 366.083 695.804 364.88C694.601 363.677 692.969 363.001 691.267 363.001C689.565 363.001 687.933 363.677 686.73 364.88L686.082 365.528M689.063 363.324L685.434 359.695C684.23 358.491 682.598 357.815 680.896 357.815C679.194 357.815 677.562 358.491 676.359 359.695C675.156 360.898 674.48 362.53 674.48 364.232C674.48 365.934 675.156 367.566 676.359 368.769M676.359 368.769C675.156 367.566 673.524 366.89 671.822 366.89C670.12 366.89 668.488 367.566 667.284 368.769C666.081 369.973 665.405 371.605 665.405 373.306C665.405 375.008 666.081 376.64 667.284 377.844L670.914 381.474M681.544 388.215C680.341 389.418 678.709 390.094 677.007 390.094C675.305 390.094 673.673 389.418 672.47 388.215C671.267 387.011 670.591 385.379 670.591 383.677C670.591 381.976 671.267 380.343 672.47 379.14L673.118 378.492M954.272 386.487C955.64 387.114 957.185 387.24 958.637 386.844C960.089 386.447 961.355 385.553 962.215 384.318C963.075 383.082 963.473 381.584 963.34 380.085C963.207 378.585 962.551 377.181 961.487 376.116L954.789 369.417L942.668 372.853M940.825 388.604C940.965 390.103 941.628 391.505 942.697 392.564C943.767 393.624 945.175 394.274 946.675 394.401C948.175 394.528 949.672 394.123 950.904 393.257C952.137 392.392 953.025 391.121 953.415 389.667L955.756 380.755L946.752 371.751M932.271 378.012C930.162 379.51 929.17 382.137 929.879 384.783C930.317 386.414 931.384 387.805 932.846 388.65C934.309 389.494 936.047 389.723 937.678 389.287L946.464 387.019L949.902 374.901M937.157 365.312C935.789 364.685 934.244 364.558 932.792 364.955C931.34 365.351 930.073 366.245 929.214 367.481C928.354 368.716 927.956 370.215 928.089 371.714C928.222 373.213 928.878 374.618 929.942 375.683L936.51 382.251L948.761 378.946M950.604 363.195C950.464 361.696 949.801 360.294 948.732 359.234C947.662 358.174 946.254 357.524 944.754 357.398C943.254 357.271 941.756 357.676 940.524 358.541C939.292 359.407 938.404 360.678 938.014 362.132L935.673 371.043L944.677 380.048M959.07 373.698C961.179 372.201 962.17 369.573 961.461 366.927C961.024 365.296 959.957 363.905 958.494 363.06C957.032 362.216 955.294 361.987 953.662 362.423L944.819 364.749L941.532 376.903M1204.05 384.974C1203.46 387.085 1203.52 389.323 1204.21 391.402C1204.91 393.48 1206.2 395.305 1207.94 396.641C1209.68 395.305 1210.97 393.48 1211.67 391.402C1212.36 389.323 1212.42 387.085 1211.83 384.974M1454.61 381.085L1452.02 378.492C1451.33 377.804 1450.94 376.872 1450.94 375.899C1450.94 374.927 1451.33 373.994 1452.02 373.306L1454.61 370.714M1464.98 391.456L1467.57 394.048C1468.26 394.736 1469.19 395.122 1470.17 395.122C1471.14 395.122 1472.07 394.736 1472.76 394.048L1475.35 391.456M1464.98 360.343L1467.57 357.75C1468.26 357.062 1469.19 356.676 1470.17 356.676C1471.14 356.676 1472.07 357.062 1472.76 357.75L1475.35 360.343M1485.72 381.085L1488.31 378.492C1489 377.804 1489.39 376.872 1489.39 375.899C1489.39 374.927 1489 373.994 1488.31 373.306L1485.72 370.714M1470.81 376.547L1472.76 368.121M1470.81 376.547L1462.39 378.492M1470.81 376.547L1476.65 382.381M1472.76 368.121L1478.59 373.955L1476.65 382.381M1472.76 368.121L1464.33 370.066L1462.39 378.492M1462.39 378.492L1468.22 384.326L1476.65 382.381M2 495.421L25.3345 472.086M3.29636 494.125L16.26 507.088C16.9476 507.776 17.8803 508.162 18.8527 508.162C19.8252 508.162 20.7578 507.776 21.4454 507.088L37.0018 491.532C37.6894 490.844 38.0757 489.912 38.0757 488.939C38.0757 487.967 37.6894 487.034 37.0018 486.346L24.0382 473.383M29.2236 499.31L34.4091 504.495M30.52 508.385L38.2981 500.606M18.8527 499.31V491.532H24.0382V483.754M282.374 508.385C285.399 511.409 288.425 512.705 291.449 512.274C291.881 509.249 290.584 506.224 287.56 503.199M295.338 495.421C298.363 498.445 301.388 499.742 304.413 499.31C304.844 496.286 303.548 493.26 300.524 490.236M278.485 491.532L283.671 486.346M282.374 495.421L287.56 490.236M1059.98 488.939C1059.63 488.595 1059.17 488.402 1058.68 488.402C1058.19 488.402 1057.73 488.595 1057.38 488.939L1054.79 491.532C1054.45 491.876 1054.25 492.342 1054.25 492.828C1054.25 493.314 1054.45 493.781 1054.79 494.125L1072.94 512.274C1073.28 512.617 1073.75 512.811 1074.24 512.811C1074.72 512.811 1075.19 512.617 1075.53 512.274L1078.13 509.681C1078.47 509.337 1078.66 508.871 1078.66 508.385C1078.66 507.898 1078.47 507.432 1078.13 507.088M1059.98 488.939L1078.13 507.088M1059.98 488.939C1059.63 488.595 1059.44 488.129 1059.44 487.643C1059.44 487.157 1059.63 486.69 1059.98 486.346L1062.57 483.754C1062.91 483.41 1063.38 483.217 1063.87 483.217C1064.35 483.217 1064.82 483.41 1065.16 483.754L1083.31 501.903C1083.65 502.247 1083.85 502.713 1083.85 503.199C1083.85 503.685 1083.65 504.152 1083.31 504.495L1080.72 507.088C1080.37 507.432 1079.91 507.625 1079.42 507.625C1078.94 507.625 1078.47 507.432 1078.13 507.088M1058.68 498.014L1063.87 492.828M1074.24 503.199L1079.42 498.014M1071.64 487.643L1075.53 481.161M1083.31 494.125L1087.13 487.769M1345.63 485.143L1345.54 504.495L1326.18 504.589C1324.92 504.606 1323.66 504.361 1322.5 503.869C1321.33 503.378 1320.28 502.65 1319.41 501.732C1318.54 500.814 1317.87 499.725 1317.44 498.535C1317.01 497.345 1316.83 496.078 1316.91 494.816C1317 493.553 1317.34 492.321 1317.92 491.198C1318.51 490.075 1319.32 489.085 1320.3 488.29C1321.29 487.495 1322.42 486.913 1323.65 486.58C1324.87 486.247 1326.14 486.17 1327.39 486.354C1327.22 485.105 1327.3 483.833 1327.64 482.617C1327.98 481.402 1328.56 480.269 1329.36 479.29C1330.15 478.311 1331.14 477.506 1332.26 476.927C1333.38 476.347 1334.61 476.005 1335.87 475.922C1337.13 475.839 1338.39 476.017 1339.58 476.444C1340.76 476.871 1341.85 477.539 1342.77 478.405C1343.68 479.272 1344.41 480.318 1344.91 481.479C1345.4 482.639 1345.65 483.89 1345.64 485.151M1327.39 486.346V494.884C1327.39 495.37 1327.58 495.837 1327.92 496.18C1328.27 496.524 1328.73 496.717 1329.22 496.717H1330.63C1332.42 496.717 1333.87 495.265 1333.87 493.476V490.884C1333.87 489.337 1334.48 487.853 1335.58 486.759C1336.67 485.665 1338.16 485.05 1339.7 485.05H1345.54M1340.35 498.014H1345.54M1340.35 491.532H1345.54M146.075 625.314L147.371 624.017M146.075 614.943L143.482 617.535C143.138 617.879 142.945 618.346 142.945 618.832C142.945 619.318 143.138 619.784 143.482 620.128L151.26 627.906C151.604 628.25 152.07 628.443 152.556 628.443C153.043 628.443 153.509 628.25 153.853 627.906L156.445 625.314M155.149 616.239L162.927 608.461M161.631 599.386L164.224 596.794C164.567 596.45 165.034 596.257 165.52 596.257C166.006 596.257 166.473 596.45 166.816 596.794L174.595 604.572C174.938 604.916 175.131 605.382 175.131 605.868C175.131 606.354 174.938 606.821 174.595 607.164L172.002 609.757M172.002 599.386L170.705 600.683M695.25 604.665L695.156 624.017L687.684 624.054M669.248 621.478C667.87 620.121 666.957 618.364 666.638 616.457C666.319 614.55 666.611 612.591 667.473 610.86C668.334 609.129 669.721 607.715 671.435 606.819C673.149 605.924 675.102 605.594 677.015 605.876C676.838 604.627 676.921 603.355 677.258 602.139C677.596 600.924 678.18 599.791 678.976 598.812C679.771 597.832 680.76 597.028 681.88 596.448C683.001 595.869 684.229 595.527 685.488 595.444C686.747 595.361 688.009 595.539 689.196 595.966C690.383 596.393 691.469 597.061 692.386 597.927C693.303 598.793 694.031 599.84 694.525 601C695.019 602.161 695.269 603.411 695.257 604.673M673.118 625.314L675.711 622.721L682.193 624.017L677.007 613.646L682.193 616.239L686.082 612.35M936.64 616.239L939.233 618.832C939.92 619.519 940.853 619.906 941.825 619.906C942.798 619.906 943.73 619.519 944.418 618.832C945.106 618.144 945.492 617.212 945.492 616.239C945.492 615.267 945.106 614.334 944.418 613.646L941.825 611.054M945.714 607.164L954.789 608.461M950.9 612.35L949.604 603.275M1207.94 604.572C1208.97 603.54 1210.37 602.961 1211.83 602.961C1213.29 602.961 1214.69 603.54 1215.72 604.572C1216.75 605.603 1217.33 607.002 1217.33 608.461C1217.33 609.92 1216.75 611.319 1215.72 612.35C1214.69 613.381 1213.29 613.961 1211.83 613.961C1210.37 613.961 1208.97 613.381 1207.94 612.35C1206.91 611.319 1206.33 609.92 1206.33 608.461C1206.33 607.002 1206.91 605.603 1207.94 604.572ZM1207.94 604.572C1208.97 603.54 1209.55 602.141 1209.55 600.683C1209.55 599.224 1208.97 597.825 1207.94 596.794C1206.91 595.762 1205.51 595.183 1204.05 595.183C1202.59 595.183 1201.19 595.762 1200.16 596.794L1192.38 604.572C1191.35 605.603 1190.77 607.002 1190.77 608.461C1190.77 609.92 1191.35 611.319 1192.38 612.35C1193.41 613.381 1194.81 613.961 1196.27 613.961C1197.73 613.961 1199.13 613.381 1200.16 612.35M1207.94 604.572L1200.16 612.35M1200.16 612.35C1199.13 613.381 1198.55 614.78 1198.55 616.239C1198.55 617.698 1199.13 619.097 1200.16 620.128C1201.19 621.16 1202.59 621.739 1204.05 621.739C1205.51 621.739 1206.91 621.16 1207.94 620.128M1207.94 620.128L1211.83 616.239M1207.94 620.128C1207.17 620.897 1206.65 621.877 1206.43 622.944C1206.22 624.011 1206.33 625.117 1206.75 626.122C1207.16 627.127 1207.87 627.986 1208.77 628.59C1209.68 629.195 1210.74 629.517 1211.83 629.517C1212.92 629.517 1213.98 629.195 1214.88 628.59C1215.79 627.986 1216.49 627.127 1216.91 626.122C1217.33 625.117 1217.44 624.011 1217.22 622.944C1217.01 621.877 1216.49 620.897 1215.72 620.128L1196.27 600.683M1455.39 619.35L1477.17 597.571M1463.16 627.128L1484.94 605.35M1457.85 601.331C1459.17 607.014 1462.05 612.215 1466.18 616.34C1470.3 620.465 1475.5 623.35 1481.18 624.665M1459.15 600.035C1464.83 601.35 1470.03 604.235 1474.16 608.36C1478.28 612.485 1481.16 617.685 1482.48 623.369M18.8527 3.07394H29.2236V39.3721H18.8527V3.07394ZM284.967 25.1121C285.655 25.7997 286.587 26.186 287.56 26.186C288.532 26.186 289.465 25.7997 290.153 25.1121C290.84 24.4245 291.227 23.4918 291.227 22.5194C291.227 21.5469 290.84 20.6143 290.153 19.9267C289.465 19.239 288.532 18.8527 287.56 18.8527C286.587 18.8527 285.655 19.239 284.967 19.9267C284.28 20.6143 283.893 21.5469 283.893 22.5194C283.893 23.4918 284.28 24.4245 284.967 25.1121ZM281.078 8.25939C281.766 8.94702 282.698 9.33333 283.671 9.33333C284.643 9.33333 285.576 8.94702 286.264 8.25939C286.951 7.57176 287.337 6.63913 287.337 5.66667C287.337 4.69421 286.951 3.76157 286.264 3.07394C285.576 2.38631 284.643 2 283.671 2C282.698 2 281.766 2.38631 281.078 3.07394C280.39 3.76157 280.004 4.69421 280.004 5.66667C280.004 6.63913 280.39 7.57176 281.078 8.25939ZM268.115 21.223C268.802 21.9106 269.735 22.297 270.707 22.297C271.68 22.297 272.612 21.9106 273.3 21.223C273.988 20.5354 274.374 19.6028 274.374 18.6303C274.374 17.6578 273.988 16.7252 273.3 16.0376C272.612 15.3499 271.68 14.9636 270.707 14.9636C269.735 14.9636 268.802 15.3499 268.115 16.0376C267.427 16.7252 267.041 17.6578 267.041 18.6303C267.041 19.6028 267.427 20.5354 268.115 21.223ZM548.489 41.9648L553.674 36.7794V9.55575C553.674 8.87479 553.54 8.20049 553.28 7.57137C553.019 6.94224 552.637 6.3706 552.156 5.88909C551.674 5.40757 551.102 5.02561 550.473 4.76502C549.844 4.50443 549.17 4.3703 548.489 4.3703C547.808 4.3703 547.134 4.50443 546.505 4.76502C545.875 5.02562 545.304 5.40757 544.822 5.88909C544.341 6.3706 543.959 6.94224 543.698 7.57137C543.438 8.2005 543.304 8.87479 543.304 9.55575V36.7794L548.489 41.9648ZM1074.24 30.2976C1072.33 30.5696 1070.39 30.2356 1068.69 29.3427C1066.98 28.4498 1065.6 27.0433 1064.74 25.3225C1063.88 23.6017 1063.58 21.6538 1063.89 19.7547C1064.2 17.8556 1065.1 16.1016 1066.46 14.7412C1067.82 13.3808 1069.57 12.4829 1071.47 12.1747C1073.37 11.8665 1075.32 12.1637 1077.04 13.0241C1078.76 13.8845 1080.17 15.2645 1081.06 16.9687C1081.95 18.6729 1082.29 20.6148 1082.01 22.5194C1082.01 23.5265 1082.24 24.5208 1082.69 25.4216C1083.14 26.3225 1083.8 27.1046 1084.61 27.7048C1085.29 28.3925 1085.68 29.3251 1085.68 30.2976C1085.68 31.27 1085.29 32.2026 1084.61 32.8903C1083.92 33.5779 1082.99 33.9642 1082.01 33.9642C1081.04 33.9642 1080.11 33.5779 1079.42 32.8903C1078.82 32.0815 1078.04 31.4253 1077.14 30.9749C1076.24 30.5245 1075.24 30.2924 1074.24 30.2976ZM143.482 139.448C142.794 138.761 142.408 137.828 142.408 136.856C142.408 135.883 142.794 134.951 143.482 134.263L153.853 123.892C154.54 123.204 155.473 122.818 156.445 122.818C157.418 122.818 158.351 123.204 159.038 123.892L164.224 129.078C164.911 129.765 165.298 130.698 165.298 131.67C165.298 132.643 164.911 133.575 164.224 134.263L153.853 144.634C153.165 145.321 152.232 145.708 151.26 145.708C150.288 145.708 149.355 145.321 148.667 144.634L143.482 139.448ZM409.596 151.116C411.128 152.648 412.947 153.863 414.949 154.692C416.951 155.522 419.097 155.948 421.264 155.948C423.43 155.948 425.576 155.522 427.578 154.692C429.58 153.863 431.399 152.648 432.931 151.116C434.463 149.584 435.678 147.765 436.508 145.763C437.337 143.761 437.764 141.615 437.764 139.448C437.764 137.282 437.337 135.136 436.508 133.134C435.678 131.132 434.463 129.313 432.931 127.781C431.399 126.249 429.58 125.034 427.578 124.204C425.576 123.375 423.43 122.948 421.264 122.948C419.097 122.948 416.951 123.375 414.949 124.204C412.947 125.034 411.128 126.249 409.596 127.781C408.064 129.313 406.849 131.132 406.02 133.134C405.19 135.136 404.764 137.282 404.764 139.448C404.764 141.615 405.19 143.761 406.02 145.763C406.849 147.765 408.064 149.584 409.596 151.116ZM416.078 132.967C416.436 133.325 416.436 133.905 416.078 134.263C415.72 134.621 415.14 134.621 414.782 134.263C414.424 133.905 414.424 133.325 414.782 132.967C415.14 132.609 415.72 132.609 416.078 132.967ZM671.822 151.116C673.354 152.648 675.173 153.863 677.175 154.692C679.177 155.522 681.322 155.948 683.489 155.948C685.656 155.948 687.801 155.522 689.803 154.692C691.805 153.863 693.624 152.648 695.156 151.116C696.688 149.584 697.904 147.765 698.733 145.763C699.562 143.761 699.989 141.615 699.989 139.448C699.989 137.282 699.562 135.136 698.733 133.134C697.904 131.132 696.688 129.313 695.156 127.781C693.624 126.249 691.805 125.034 689.803 124.204C687.801 123.375 685.656 122.948 683.489 122.948C681.322 122.948 679.177 123.375 677.175 124.204C675.173 125.034 673.354 126.249 671.822 127.781C670.29 129.313 669.074 131.132 668.245 133.134C667.416 135.136 666.989 137.282 666.989 139.448C666.989 141.615 667.416 143.761 668.245 145.763C669.074 147.765 670.29 149.584 671.822 151.116ZM679.6 145.93C680.975 147.305 682.84 148.078 684.785 148.078C686.73 148.078 688.595 147.305 689.971 145.93C691.346 144.555 692.119 142.69 692.119 140.745C692.119 138.8 691.346 136.935 689.971 135.559L679.6 145.93ZM943.122 149.819L956.085 136.856L961.271 142.041C961.958 142.729 962.345 143.661 962.345 144.634C962.345 145.606 961.958 146.539 961.271 147.227L953.493 155.005C952.805 155.692 951.872 156.079 950.9 156.079C949.927 156.079 948.995 155.692 948.307 155.005L943.122 149.819ZM1196.27 130.374C1196.62 130.718 1197.08 130.911 1197.57 130.911C1198.06 130.911 1198.52 130.718 1198.87 130.374C1199.21 130.03 1199.4 129.564 1199.4 129.078C1199.4 128.591 1199.21 128.125 1198.87 127.781C1198.52 127.437 1198.06 127.244 1197.57 127.244C1197.08 127.244 1196.62 127.437 1196.27 127.781C1195.93 128.125 1195.74 128.591 1195.74 129.078C1195.74 129.564 1195.93 130.03 1196.27 130.374ZM1474.05 130.374C1474.05 130.374 1476.95 136.832 1477.3 137.504C1476.72 137.045 1464.98 129.078 1464.98 129.078C1461.57 132.483 1462.12 135.985 1463.68 139.448C1463.68 139.448 1467.25 147.792 1467.57 148.523C1467.08 148.063 1461.09 143.337 1461.09 143.337C1457.82 140.458 1453.06 141.044 1450.75 143.363L1470.17 157.597C1473.71 154.022 1474.26 149.454 1472.76 145.93C1472.76 145.93 1469.05 138.489 1468.87 138.152C1469.12 138.369 1480.54 147.227 1480.54 147.227C1484.11 143.651 1484.51 139.034 1483.13 135.559L1475.35 118.707C1471.81 122.248 1472.5 126.884 1474.05 130.374ZM24.0382 281.008L18.8527 275.823C17.8271 274.797 17.1287 273.491 16.8457 272.068C16.5628 270.646 16.708 269.171 17.263 267.831C17.8181 266.491 18.758 265.346 19.964 264.54C21.1699 263.734 22.5878 263.304 24.0382 263.304C25.4886 263.304 26.9064 263.734 28.1123 264.54C29.3183 265.346 30.2582 266.491 30.8133 267.831C31.3683 269.171 31.5135 270.646 31.2306 272.068C30.9476 273.491 30.2492 274.797 29.2236 275.823L24.0382 281.008ZM531.636 256.377C530.949 255.69 530.562 254.757 530.562 253.785C530.562 252.812 530.949 251.88 531.636 251.192L542.007 240.821C542.695 240.133 543.627 239.747 544.6 239.747C545.572 239.747 546.505 240.133 547.193 240.821L565.342 258.97C566.029 259.658 566.416 260.59 566.416 261.563C566.416 262.535 566.029 263.468 565.342 264.156L554.971 274.527C554.283 275.214 553.351 275.6 552.378 275.6C551.406 275.6 550.473 275.214 549.785 274.527L531.636 256.377ZM814.603 258.97C809.034 258.97 804.233 254.168 804.233 248.599C804.233 243.186 809.249 238.469 814.603 238.228V258.97ZM1061.27 256.377C1062.65 257.753 1064.51 258.525 1066.46 258.525C1068.4 258.525 1070.27 257.753 1071.64 256.377C1073.02 255.002 1073.79 253.137 1073.79 251.192C1073.79 249.247 1073.02 247.382 1071.64 246.007C1070.27 244.631 1068.4 243.859 1066.46 243.859C1064.51 243.859 1062.65 244.631 1061.27 246.007C1059.9 247.382 1059.12 249.247 1059.12 251.192C1059.12 253.137 1059.9 255.002 1061.27 256.377ZM1314.42 260.267C1314.08 259.923 1313.89 259.456 1313.89 258.97C1313.89 258.484 1314.08 258.018 1314.42 257.674L1335.17 236.932C1335.51 236.588 1335.98 236.395 1336.46 236.395C1336.95 236.395 1337.41 236.588 1337.76 236.932L1350.72 249.896C1351.07 250.239 1351.26 250.706 1351.26 251.192C1351.26 251.678 1351.07 252.145 1350.72 252.488L1329.98 273.23C1329.64 273.574 1329.17 273.767 1328.68 273.767C1328.2 273.767 1327.73 273.574 1327.39 273.23L1314.42 260.267ZM432.931 387.566C429.836 390.661 425.64 392.399 421.264 392.399C416.887 392.399 412.691 390.661 409.596 387.566C406.502 384.472 404.764 380.275 404.764 375.899C404.764 371.523 406.502 367.326 409.596 364.232C416.039 357.789 425.907 357.208 431.634 362.936C433.009 364.31 433.714 366.244 433.592 368.31C433.47 370.377 432.533 372.408 430.986 373.955L427.745 377.196C427.158 377.765 426.777 378.514 426.664 379.324C426.552 380.134 426.713 380.959 427.123 381.667C427.533 382.375 428.167 382.925 428.926 383.231C429.685 383.537 430.524 383.58 431.31 383.353C431.808 383.333 432.299 383.47 432.716 383.743C433.132 384.017 433.452 384.414 433.631 384.879C433.809 385.344 433.838 385.853 433.712 386.335C433.587 386.817 433.314 387.248 432.931 387.566ZM413.485 379.788C413.829 380.132 414.296 380.325 414.782 380.325C415.268 380.325 415.734 380.132 416.078 379.788C416.422 379.444 416.615 378.978 416.615 378.492C416.615 378.006 416.422 377.539 416.078 377.196C415.734 376.852 415.268 376.659 414.782 376.659C414.296 376.659 413.829 376.852 413.485 377.196C413.142 377.539 412.948 378.006 412.948 378.492C412.948 378.978 413.142 379.444 413.485 379.788ZM414.782 370.714C415.126 371.058 415.592 371.251 416.078 371.251C416.564 371.251 417.031 371.058 417.374 370.714C417.718 370.37 417.911 369.904 417.911 369.417C417.911 368.931 417.718 368.465 417.374 368.121C417.031 367.777 416.564 367.584 416.078 367.584C415.592 367.584 415.126 367.777 414.782 368.121C414.438 368.465 414.245 368.931 414.245 369.417C414.245 369.904 414.438 370.37 414.782 370.714ZM423.856 369.417C424.2 369.761 424.666 369.954 425.153 369.954C425.639 369.954 426.105 369.761 426.449 369.417C426.793 369.074 426.986 368.607 426.986 368.121C426.986 367.635 426.793 367.168 426.449 366.825C426.105 366.481 425.639 366.288 425.153 366.288C424.666 366.288 424.2 366.481 423.856 366.825C423.512 367.168 423.319 367.635 423.319 368.121C423.319 368.607 423.512 369.074 423.856 369.417ZM1198.87 387.566C1201.45 385.53 1204.65 384.422 1207.94 384.422C1211.23 384.422 1214.43 385.53 1217.01 387.566C1217.5 385.76 1217.52 383.86 1217.06 382.045C1216.61 380.23 1215.7 378.561 1214.42 377.196C1215.83 374.253 1216.34 370.958 1215.88 367.728C1215.42 364.497 1214.01 361.476 1211.83 359.046C1210.8 358.015 1209.4 357.436 1207.94 357.436C1206.48 357.436 1205.08 358.015 1204.05 359.046C1201.87 361.476 1200.46 364.497 1200 367.728C1199.54 370.958 1200.05 374.253 1201.46 377.196C1200.18 378.561 1199.27 380.23 1198.82 382.045C1198.36 383.86 1198.38 385.76 1198.87 387.566ZM1206.64 369.417C1206.99 369.761 1207.45 369.954 1207.94 369.954C1208.43 369.954 1208.89 369.761 1209.24 369.417C1209.58 369.074 1209.77 368.607 1209.77 368.121C1209.77 367.635 1209.58 367.168 1209.24 366.825C1208.89 366.481 1208.43 366.288 1207.94 366.288C1207.45 366.288 1206.99 366.481 1206.64 366.825C1206.3 367.168 1206.11 367.635 1206.11 368.121C1206.11 368.607 1206.3 369.074 1206.64 369.417ZM275.893 488.939C275.382 488.428 274.776 488.023 274.108 487.747C273.441 487.47 272.726 487.328 272.004 487.328C271.281 487.328 270.566 487.47 269.899 487.747C269.232 488.023 268.625 488.428 268.115 488.939C267.604 489.45 267.199 490.056 266.922 490.723C266.646 491.391 266.504 492.106 266.504 492.828C266.504 493.551 266.646 494.266 266.922 494.933C267.199 495.6 267.604 496.207 268.115 496.717L277.189 505.792L284.967 498.014L275.893 488.939ZM290.153 492.828L297.931 485.05L288.856 475.976C287.825 474.944 286.426 474.365 284.967 474.365C283.509 474.365 282.11 474.944 281.078 475.976C280.047 477.007 279.467 478.406 279.467 479.865C279.467 481.323 280.047 482.722 281.078 483.754L290.153 492.828ZM547.193 495.421C547.536 495.765 548.003 495.958 548.489 495.958C548.975 495.958 549.442 495.765 549.785 495.421C550.129 495.077 550.322 494.611 550.322 494.125C550.322 493.638 550.129 493.172 549.785 492.828C549.442 492.484 548.975 492.291 548.489 492.291C548.003 492.291 547.536 492.484 547.193 492.828C546.849 493.172 546.656 493.638 546.656 494.125C546.656 494.611 546.849 495.077 547.193 495.421ZM542.007 500.606C543.726 502.325 546.058 503.291 548.489 503.291C550.92 503.291 553.252 502.325 554.971 500.606C556.69 498.887 557.656 496.556 557.656 494.125C557.656 491.693 556.69 489.362 554.971 487.643C553.252 485.924 550.92 484.958 548.489 484.958C546.058 484.958 543.726 485.924 542.007 487.643C540.288 489.362 539.322 491.693 539.322 494.125C539.322 496.556 540.288 498.887 542.007 500.606ZM536.822 505.792C538.354 507.324 540.173 508.539 542.175 509.369C544.177 510.198 546.322 510.625 548.489 510.625C550.656 510.625 552.801 510.198 554.803 509.369C556.805 508.539 558.624 507.324 560.156 505.792C561.688 504.26 562.904 502.441 563.733 500.439C564.562 498.437 564.989 496.291 564.989 494.125C564.989 491.958 564.562 489.812 563.733 487.81C562.904 485.808 561.688 483.99 560.156 482.457C558.624 480.925 556.805 479.71 554.803 478.881C552.801 478.051 550.656 477.625 548.489 477.625C546.322 477.625 544.177 478.051 542.175 478.881C540.173 479.71 538.354 480.925 536.822 482.457C535.29 483.99 534.074 485.808 533.245 487.81C532.416 489.812 531.989 491.958 531.989 494.125C531.989 496.291 532.416 498.437 533.245 500.439C534.074 502.441 535.29 504.26 536.822 505.792ZM795.158 496.717L796.454 495.421C797.142 494.733 797.528 493.801 797.528 492.828C797.528 491.856 797.142 490.923 796.454 490.236C796.111 489.892 795.917 489.425 795.917 488.939C795.917 488.453 796.111 487.987 796.454 487.643L804.233 479.865C804.576 479.521 805.043 479.328 805.529 479.328C806.015 479.328 806.481 479.521 806.825 479.865C807.513 480.552 808.446 480.939 809.418 480.939C810.39 480.939 811.323 480.552 812.011 479.865L813.307 478.568C813.995 477.881 814.927 477.494 815.9 477.494C816.872 477.494 817.805 477.881 818.493 478.568L830.16 490.236C830.847 490.923 831.234 491.856 831.234 492.828C831.234 493.801 830.847 494.733 830.16 495.421L812.011 513.57C811.323 514.258 810.39 514.644 809.418 514.644C808.446 514.644 807.513 514.258 806.825 513.57L795.158 501.903C794.47 501.215 794.084 500.283 794.084 499.31C794.084 498.338 794.47 497.405 795.158 496.717ZM808.122 499.31C809.153 500.342 810.552 500.921 812.011 500.921C813.469 500.921 814.868 500.342 815.9 499.31C816.931 498.279 817.511 496.88 817.511 495.421C817.511 493.962 816.931 492.563 815.9 491.532C814.868 490.5 813.469 489.921 812.011 489.921C810.552 489.921 809.153 490.5 808.122 491.532C807.09 492.563 806.511 493.962 806.511 495.421C806.511 496.88 807.09 498.279 808.122 499.31ZM1065.63 482.142L1067.78 478.624C1068.33 477.72 1069.49 477.402 1070.39 477.911L1092.57 490.516C1092.97 490.749 1093.28 491.125 1093.42 491.57C1093.56 492.014 1093.53 492.495 1093.33 492.918L1093.21 493.143L1091.07 496.662C1090.51 497.565 1089.35 497.884 1088.46 497.375L1066.27 484.77C1065.87 484.536 1065.57 484.16 1065.43 483.716C1065.29 483.271 1065.32 482.791 1065.51 482.368L1065.63 482.142ZM144.778 613.646L157.742 626.61C158.086 626.954 158.552 627.147 159.038 627.147C159.524 627.147 159.991 626.954 160.335 626.61L161.631 625.314C161.975 624.97 162.168 624.503 162.168 624.017C162.168 623.531 161.975 623.065 161.631 622.721L148.667 609.757C148.323 609.413 147.857 609.22 147.371 609.22C146.885 609.22 146.418 609.413 146.075 609.757L144.778 611.054C144.434 611.397 144.241 611.864 144.241 612.35C144.241 612.836 144.434 613.302 144.778 613.646ZM156.445 601.979L169.409 614.943C169.753 615.287 170.219 615.48 170.705 615.48C171.192 615.48 171.658 615.287 172.002 614.943L173.298 613.646C173.642 613.302 173.835 612.836 173.835 612.35C173.835 611.864 173.642 611.397 173.298 611.054L160.335 598.09C159.991 597.746 159.524 597.553 159.038 597.553C158.552 597.553 158.086 597.746 157.742 598.09L156.445 599.386C156.102 599.73 155.908 600.196 155.908 600.683C155.908 601.169 156.102 601.635 156.445 601.979ZM403.183 607.288C404.135 605.945 405.376 604.833 406.815 604.033C408.254 603.234 409.854 602.768 411.497 602.669L411.588 602.664L411.593 602.581C411.694 601.02 412.128 599.499 412.864 598.119C413.6 596.739 414.622 595.532 415.862 594.578L416.227 594.306C417.848 593.162 419.748 592.478 421.726 592.326C423.704 592.174 425.687 592.56 427.463 593.443C429.24 594.326 430.745 595.672 431.818 597.341C432.892 599.009 433.495 600.936 433.562 602.919L433.569 603.392L433.56 603.508L433.468 622.731C433.465 623.175 433.302 623.602 433.009 623.935C432.715 624.267 432.311 624.482 431.872 624.54L431.644 624.555L412.308 624.647C410.278 624.675 408.28 624.14 406.535 623.102C404.789 622.064 403.366 620.564 402.421 618.766C401.476 616.969 401.047 614.945 401.182 612.919C401.316 610.894 402.009 608.944 403.183 607.288ZM934.047 624.017C935.579 625.549 937.398 626.765 939.4 627.594C941.402 628.423 943.548 628.85 945.714 628.85C947.881 628.85 950.027 628.423 952.029 627.594C954.031 626.765 955.85 625.549 957.382 624.017C958.914 622.485 960.129 620.666 960.958 618.664C961.788 616.662 962.214 614.517 962.214 612.35C962.214 610.183 961.788 608.038 960.958 606.036C960.129 604.034 958.914 602.215 957.382 600.683C955.85 599.151 954.031 597.935 952.029 597.106C950.027 596.277 947.881 595.85 945.714 595.85C943.548 595.85 941.402 596.277 939.4 597.106C937.398 597.935 935.579 599.151 934.047 600.683C932.515 602.215 931.3 604.034 930.47 606.036C929.641 608.038 929.214 610.183 929.214 612.35C929.214 614.517 929.641 616.662 930.47 618.664C931.3 620.666 932.515 622.485 934.047 624.017ZM1458.5 624.017C1460.03 625.549 1461.85 626.765 1463.85 627.594C1465.85 628.423 1468 628.85 1470.17 628.85C1472.33 628.85 1474.48 628.423 1476.48 627.594C1478.48 626.765 1480.3 625.549 1481.83 624.017C1483.36 622.485 1484.58 620.666 1485.41 618.664C1486.24 616.662 1486.67 614.517 1486.67 612.35C1486.67 610.183 1486.24 608.038 1485.41 606.036C1484.58 604.034 1483.36 602.215 1481.83 600.683C1478.74 597.588 1474.54 595.85 1470.17 595.85C1465.79 595.85 1461.59 597.588 1458.5 600.683C1455.4 603.777 1453.67 607.974 1453.67 612.35C1453.67 616.726 1455.4 620.923 1458.5 624.017Z" stroke="#4D4D4D" stroke-width="2.75" stroke-linecap="round" stroke-linejoin="round"/>
</svg>
