<svg width="44" height="44" viewBox="0 0 44 44" fill="none" xmlns="http://www.w3.org/2000/svg">
<path d="M7.33301 14.6667C7.33301 12.7217 8.10562 10.8565 9.48089 9.48122C10.8562 8.10595 12.7214 7.33333 14.6663 7.33333H29.333C31.2779 7.33333 33.1432 8.10595 34.5185 9.48122C35.8937 10.8565 36.6663 12.7217 36.6663 14.6667V29.3333C36.6663 31.2783 35.8937 33.1435 34.5185 34.5188C33.1432 35.894 31.2779 36.6667 29.333 36.6667H14.6663C12.7214 36.6667 10.8562 35.894 9.48089 34.5188C8.10562 33.1435 7.33301 31.2783 7.33301 29.3333V14.6667Z" stroke="#F2F2F2" stroke-width="2.75" stroke-linecap="round" stroke-linejoin="round"/>
<path d="M16.5 22C16.5 23.4587 17.0795 24.8576 18.1109 25.8891C19.1424 26.9205 20.5413 27.5 22 27.5C23.4587 27.5 24.8576 26.9205 25.8891 25.8891C26.9205 24.8576 27.5 23.4587 27.5 22C27.5 20.5413 26.9205 19.1424 25.8891 18.1109C24.8576 17.0795 23.4587 16.5 22 16.5C20.5413 16.5 19.1424 17.0795 18.1109 18.1109C17.0795 19.1424 16.5 20.5413 16.5 22Z" stroke="#F2F2F2" stroke-width="2.75" stroke-linecap="round" stroke-linejoin="round"/>
<path d="M30.25 13.75V13.7683" stroke="#F2F2F2" stroke-width="2.75" stroke-linecap="round" stroke-linejoin="round"/>
</svg>
