<svg width="44" height="44" viewBox="0 0 44 44" fill="none" xmlns="http://www.w3.org/2000/svg">
<path d="M7.33301 11C7.33301 10.0275 7.71932 9.09491 8.40695 8.40727C9.09458 7.71964 10.0272 7.33333 10.9997 7.33333H32.9997C33.9721 7.33333 34.9048 7.71964 35.5924 8.40727C36.28 9.09491 36.6663 10.0275 36.6663 11V33C36.6663 33.9725 36.28 34.9051 35.5924 35.5927C34.9048 36.2804 33.9721 36.6667 32.9997 36.6667H10.9997C10.0272 36.6667 9.09458 36.2804 8.40695 35.5927C7.71932 34.9051 7.33301 33.9725 7.33301 33V11Z" stroke="#F2F2F2" stroke-width="2.75" stroke-linecap="round" stroke-linejoin="round"/>
<path d="M14.667 20.1667V29.3333" stroke="#F2F2F2" stroke-width="2.75" stroke-linecap="round" stroke-linejoin="round"/>
<path d="M14.667 14.6667V14.685" stroke="#F2F2F2" stroke-width="2.75" stroke-linecap="round" stroke-linejoin="round"/>
<path d="M22 29.3333V20.1667" stroke="#F2F2F2" stroke-width="2.75" stroke-linecap="round" stroke-linejoin="round"/>
<path d="M29.3333 29.3333V23.8333C29.3333 22.8609 28.947 21.9282 28.2594 21.2406C27.5718 20.553 26.6391 20.1667 25.6667 20.1667C24.6942 20.1667 23.7616 20.553 23.0739 21.2406C22.3863 21.9282 22 22.8609 22 23.8333" stroke="#F2F2F2" stroke-width="2.75" stroke-linecap="round" stroke-linejoin="round"/>
</svg>
