<svg width="44" height="44" viewBox="0 0 44 44" fill="none" xmlns="http://www.w3.org/2000/svg">
<path d="M20.1667 22C20.1667 22.4863 20.3599 22.9526 20.7037 23.2964C21.0475 23.6402 21.5139 23.8334 22.0001 23.8334C22.4863 23.8334 22.9526 23.6402 23.2964 23.2964C23.6403 22.9526 23.8334 22.4863 23.8334 22C23.8334 21.5138 23.6403 21.0475 23.2964 20.7037C22.9526 20.3598 22.4863 20.1667 22.0001 20.1667C21.5139 20.1667 21.0475 20.3598 20.7037 20.7037C20.3599 21.0475 20.1667 21.5138 20.1667 22Z" stroke="#39BFC6" stroke-width="2.75" stroke-linecap="round" stroke-linejoin="round"/>
<path d="M21.9999 12.8333C20.1869 12.8333 18.4146 13.3709 16.9072 14.3782C15.3997 15.3854 14.2248 16.8171 13.531 18.492C12.8372 20.167 12.6557 22.0101 13.0094 23.7883C13.3631 25.5665 14.2361 27.1998 15.5181 28.4818C16.8001 29.7638 18.4334 30.6368 20.2116 30.9905C21.9898 31.3442 23.8329 31.1627 25.5079 30.4689C27.1828 29.7751 28.6145 28.6002 29.6217 27.0927C30.629 25.5853 31.1666 23.813 31.1666 22" stroke="#39BFC6" stroke-width="2.75" stroke-linecap="round" stroke-linejoin="round"/>
<path d="M23.8332 5.60081C20.4343 5.21949 17.001 5.90382 14.008 7.55912C11.0151 9.21442 8.61049 11.7589 7.12687 14.8405C5.64325 17.9222 5.15393 21.3888 5.7266 24.7607C6.29928 28.1326 7.90563 31.2432 10.3235 33.6623C12.7413 36.0813 15.8511 37.6892 19.2227 38.2636C22.5944 38.838 26.0612 38.3504 29.1436 36.8683C32.226 35.3863 34.7717 32.983 36.4285 29.9909C38.0853 26.9987 38.7713 23.5657 38.3917 20.1666" stroke="#39BFC6" stroke-width="2.75" stroke-linecap="round" stroke-linejoin="round"/>
<path d="M27.5 11V16.5H33L38.5 11H33V5.5L27.5 11Z" stroke="#39BFC6" stroke-width="2.75" stroke-linecap="round" stroke-linejoin="round"/>
<path d="M27.5 16.5L22 22" stroke="#39BFC6" stroke-width="2.75" stroke-linecap="round" stroke-linejoin="round"/>
</svg>
