<svg width="44" height="44" viewBox="0 0 44 44" fill="none" xmlns="http://www.w3.org/2000/svg">
<g clip-path="url(#clip0_54_40)">
<path d="M18.3333 23.8334C18.3333 24.8058 18.7196 25.7384 19.4072 26.4261C20.0948 27.1137 21.0275 27.5 21.9999 27.5C22.9724 27.5 23.905 27.1137 24.5926 26.4261C25.2803 25.7384 25.6666 24.8058 25.6666 23.8334C25.6666 22.8609 25.2803 21.9283 24.5926 21.2406C23.905 20.553 22.9724 20.1667 21.9999 20.1667C21.0275 20.1667 20.0948 20.553 19.4072 21.2406C18.7196 21.9283 18.3333 22.8609 18.3333 23.8334Z" stroke="#39BFC6" stroke-width="2.75" stroke-linecap="round" stroke-linejoin="round"/>
<path d="M14.6667 38.5V36.6667C14.6667 35.6942 15.0531 34.7616 15.7407 34.0739C16.4283 33.3863 17.361 33 18.3334 33H25.6667C26.6392 33 27.5718 33.3863 28.2595 34.0739C28.9471 34.7616 29.3334 35.6942 29.3334 36.6667V38.5" stroke="#39BFC6" stroke-width="2.75" stroke-linecap="round" stroke-linejoin="round"/>
<path d="M27.5 9.16667C27.5 10.1391 27.8863 11.0718 28.5739 11.7594C29.2616 12.447 30.1942 12.8333 31.1667 12.8333C32.1391 12.8333 33.0718 12.447 33.7594 11.7594C34.447 11.0718 34.8333 10.1391 34.8333 9.16667C34.8333 8.19421 34.447 7.26158 33.7594 6.57394C33.0718 5.88631 32.1391 5.5 31.1667 5.5C30.1942 5.5 29.2616 5.88631 28.5739 6.57394C27.8863 7.26158 27.5 8.19421 27.5 9.16667Z" stroke="#39BFC6" stroke-width="2.75" stroke-linecap="round" stroke-linejoin="round"/>
<path d="M31.1667 18.3333H34.8334C35.8059 18.3333 36.7385 18.7196 37.4261 19.4073C38.1138 20.0949 38.5001 21.0275 38.5001 22V23.8333" stroke="#39BFC6" stroke-width="2.75" stroke-linecap="round" stroke-linejoin="round"/>
<path d="M9.16675 9.16667C9.16675 10.1391 9.55306 11.0718 10.2407 11.7594C10.9283 12.447 11.861 12.8333 12.8334 12.8333C13.8059 12.8333 14.7385 12.447 15.4261 11.7594C16.1138 11.0718 16.5001 10.1391 16.5001 9.16667C16.5001 8.19421 16.1138 7.26158 15.4261 6.57394C14.7385 5.88631 13.8059 5.5 12.8334 5.5C11.861 5.5 10.9283 5.88631 10.2407 6.57394C9.55306 7.26158 9.16675 8.19421 9.16675 9.16667Z" stroke="#39BFC6" stroke-width="2.75" stroke-linecap="round" stroke-linejoin="round"/>
<path d="M5.5 23.8333V22C5.5 21.0275 5.88631 20.0949 6.57394 19.4073C7.26158 18.7196 8.19421 18.3333 9.16667 18.3333H12.8333" stroke="#39BFC6" stroke-width="2.75" stroke-linecap="round" stroke-linejoin="round"/>
</g>
<defs>
<clipPath id="clip0_54_40">
<rect width="44" height="44" fill="white"/>
</clipPath>
</defs>
</svg>
