<svg width="35" height="4" viewBox="0 0 35 4" fill="none" xmlns="http://www.w3.org/2000/svg">
<path d="M34.5 0.50002L34.5 3.43953C34.262 3.38473 34.0131 3.29408 33.7504 3.17334C33.2962 2.96463 32.836 2.6834 32.3444 2.38217L32.3309 2.37392C31.8542 2.08179 31.3468 1.77091 30.8335 1.53502C30.3138 1.29619 29.7529 1.117 29.1663 1.117C28.58 1.117 28.0192 1.29621 27.4997 1.53505C26.9866 1.77087 26.4795 2.08166 26.0029 2.37373L25.9891 2.38218C25.4976 2.68341 25.0374 2.96463 24.5833 3.17334C24.1307 3.38131 23.7194 3.5 23.3337 3.5C22.948 3.5 22.5366 3.38131 22.084 3.17333C21.6299 2.96463 21.1697 2.6834 20.6781 2.38217L20.6646 2.37391C20.1878 2.08178 19.6805 1.7709 19.1672 1.53502C18.6475 1.29618 18.0866 1.117 17.5 1.117C16.9134 1.117 16.3525 1.29618 15.8328 1.53502C15.3195 1.7709 14.8122 2.08178 14.3354 2.37391L14.3219 2.38217C13.8303 2.6834 13.3701 2.96462 12.916 3.17333C12.4634 3.38131 12.052 3.5 11.6663 3.5C11.2806 3.5 10.8693 3.38131 10.4167 3.17333C9.96254 2.96462 9.50234 2.6834 9.01072 2.38217L8.99728 2.37393C8.52052 2.08179 8.01316 1.77091 7.49986 1.53502C6.98014 1.29618 6.41924 1.117 5.83266 1.117C5.24608 1.117 4.68518 1.29618 4.16547 1.53502C3.65208 1.77096 3.14465 2.08193 2.66785 2.37412L2.6547 2.38218C2.16314 2.68342 1.70303 2.96465 1.249 3.17336C0.986443 3.29405 0.737785 3.38467 0.499996 3.43947L0.499947 0.500017L34.5 0.50002Z" fill="#39BFC6" stroke="#39BFC6"/>
</svg>
