<svg width="35" height="4" viewBox="0 0 35 4" fill="none" xmlns="http://www.w3.org/2000/svg">
<path d="M0.5 0.560467C0.738019 0.615268 0.986884 0.70592 1.24963 0.826666C1.70379 1.03538 2.16399 1.3166 2.65561 1.61783L2.66906 1.62607C3.14582 1.91821 3.65318 2.22909 4.16647 2.46498C4.68619 2.70382 5.24709 2.883 5.83367 2.883C6.42004 2.883 6.98078 2.70379 7.50034 2.46496C8.01335 2.22913 8.52049 1.91834 8.99708 1.62627L9.01087 1.61782C9.50241 1.31659 9.96258 1.03537 10.4167 0.826664C10.8693 0.618692 11.2806 0.5 11.6663 0.5C12.052 0.5 12.4634 0.618692 12.916 0.826666C13.3701 1.03538 13.8303 1.3166 14.3219 1.61783L14.3354 1.62609C14.8122 1.91822 15.3195 2.2291 15.8328 2.46498C16.3525 2.70382 16.9134 2.883 17.5 2.883C18.0866 2.883 18.6475 2.70382 19.1672 2.46498C19.6805 2.2291 20.1878 1.91822 20.6646 1.62609L20.6781 1.61783C21.1697 1.3166 21.6299 1.03538 22.084 0.826666C22.5366 0.618692 22.948 0.5 23.3337 0.5C23.7194 0.5 24.1307 0.618692 24.5833 0.826666C25.0375 1.03538 25.4977 1.3166 25.9893 1.61783L26.0027 1.62608C26.4795 1.91821 26.9869 2.2291 27.5001 2.46498C28.0199 2.70382 28.5808 2.883 29.1673 2.883C29.7539 2.883 30.3148 2.70382 30.8345 2.46498C31.3479 2.22903 31.8554 1.91805 32.3322 1.62585L32.3453 1.61782C32.8369 1.31658 33.297 1.03535 33.751 0.826643C34.0136 0.70595 34.2622 0.615335 34.5 0.560533V3.5H0.5V0.560467Z" fill="white" stroke="white"/>
</svg>
